{"title":"Terminator 2 Judgment Day 1991 ESE BRRip XviD AC3 ANALOG","uid":12149172,"size":2272162285,"categoryP":"video","categoryS":"movies","magnet":"?xt=urn:btih:d21244ec40b7f6daecff1bb32ec540f2d9ccd7c4&amp;dn=Terminator+2+Judgment+Day+1991+ESE+BRRip+XviD+AC3+ANALOG&amp;tr=udp%3A%2F%2Ftracker.openbittorrent.com%3A80&amp;tr=udp%3A%2F%2Fopen.demonii.com%3A1337&amp;tr=udp%3A%2F%2Ftracker.coppersurfer.tk%3A6969&amp;tr=udp%3A%2F%2Fexodus.desync.com%3A6969","seeders":1,"leechers":0,"uploader":"TerminatorFan","files":9,"time":1437561668,"description":"---------------\n* General *\n---------------\n\nComplete name : Terminator.2.Judgement.Day.Skynet.Edition.BRRip.Ac3.Xvid.ANALOGT.2.J.D.BRR.ANALOG.avi\nFormat : AVI\nFormat/Info : Audio Video Interleave\nFormat profile : OpenDML\nFile size : 2.10 GiB\nDuration : 2h 36mn\nOverall bit rate : 1 929 Kbps\nWriting application : VirtualDubMod 1.5.10.2 (build 2540/release)\nWriting library : VirtualDubMod build 2540/release\n\n-------------\n* Video *\n-------------\n\nID : 0\nFormat : MPEG-4 Visual\nFormat profile : Advanced Simple@L5\nFormat settings, BVOP : 2\nFormat settings, QPel : No\nFormat settings, GMC : No warppoints\nFormat settings, Matrix : Default (MPEG)\nMuxing mode : Packed bitstream\nCodec ID : XVID\nCodec ID/Hint : XviD\nDuration : 2h 36mn\nBit rate : 1 533 Kbps\nWidth : 688 pixels\nHeight : 288 pixels\nDisplay aspect ratio : 2.40:1\nFrame rate : 23.976 fps\nColor space : YUV\nChroma subsampling : 4:2:0\nBit depth : 8 bits\nScan type : Progressive\nCompression mode : Lossy\nBits/(Pixel*Frame) : 0.323\nStream size : 1.67 GiB (79%)\nWriting library : XviD 1.2.1 (UTC 2008-12-04)\n\n-------------\n* Audio *\n-------------\n\nID : 1\nFormat : AC-3\nFormat/Info : Audio Coding 3\nMode extension : CM (complete main)\nFormat settings, Endianness : Big\nCodec ID : 2000\nDuration : 2h 36mn\nBit rate mode : Constant\nBit rate : 384 Kbps\nChannel(s) : 6 channels\nChannel positions : Front: L C R, Side: L R, LFE\nSampling rate : 48.0 KHz\nBit depth : 16 bits\nCompression mode : Lossy\nStream size : 429 MiB (20%)\nAlignment : Split accross interleaves\nInterleave, duration : 42 ms (1.00 video frame)\nInterleave, preload duration : 500 ms\n\nThis is the Extended Special Edition. (156 min)\n\nThanks goes to the original encoder/provider, ANALOG.\n\nEnjoy &amp; Please Seed!","torrent":{"xt":"urn:btih:d21244ec40b7f6daecff1bb32ec540f2d9ccd7c4","amp;dn":"Terminator+2+Judgment+Day+1991+ESE+BRRip+XviD+AC3+ANALOG","amp;tr":["udp%3A%2F%2Ftracker.openbittorrent.com%3A80","udp%3A%2F%2Fopen.demonii.com%3A1337","udp%3A%2F%2Ftracker.coppersurfer.tk%3A6969","udp%3A%2F%2Fexodus.desync.com%3A6969"],"infoHash":"d21244ec40b7f6daecff1bb32ec540f2d9ccd7c4","infoHashBuffer":{"type":"Buffer","data":[210,18,68,236,64,183,246,218,236,255,27,179,46,197,64,242,217,204,215,196]},"announce":[],"urlList":[]}}